HIERARCHY
ROOT Hips
{
	OFFSET 0.000000 0.000000 0.000000
	CHANNELS 6 Xposition Yposition Zposition Zrotation Yrotation Xrotation 
	JOINT LHipJoint
	{
		OFFSET 0.000000 0.000000 0.000000
		CHANNELS 3 Zrotation Yrotation Xrotation
		JOINT LeftUpLeg
		{
			OFFSET 1.363060 -1.794630 0.839290
			CHANNELS 3 Zrotation Yrotation Xrotation
			JOINT LeftLeg
			{
				OFFSET 2.448110 -6.726130 0.000000
				CHANNELS 3 Zrotation Yrotation Xrotation
				JOINT LeftFoot
				{
					OFFSET 2.562200 -7.039590 0.000000
					CHANNELS 3 Zrotation Yrotation Xrotation
					JOINT LeftToeBase
					{
						OFFSET 0.157640 -0.433110 2.322550
						CHANNELS 3 Zrotation Yrotation Xrotation
						End Site
						{
							OFFSET 0.000000 0.000000 0.000000
						}
					}
				}
			}
		}
	}
	JOINT RHipJoint
	{
		OFFSET 0.000000 0.000000 0.000000
		CHANNELS 3 Zrotation Yrotation Xrotation
		JOINT RightUpLeg
		{
			OFFSET -1.305520 -1.794630 0.839290
			CHANNELS 3 Zrotation Yrotation Xrotation
			JOINT RightLeg
			{
				OFFSET -2.542530 -6.985550 0.000000
				CHANNELS 3 Zrotation Yrotation Xrotation
				JOINT RightFoot
				{
					OFFSET -2.568260 -7.056230 0.000000
					CHANNELS 3 Zrotation Yrotation Xrotation
					JOINT RightToeBase
					{
						OFFSET -0.164730 -0.452590 2.363150
						CHANNELS 3 Zrotation Yrotation Xrotation
						End Site
						{
							OFFSET 0.000000 0.000000 0.000000
						}
					}
				}
			}
		}
	}
}
MOTION
Frames: 11
Frame Time: 0.008333
7.809471 19.341027 0.656221 36.649919 -84.744229 -9.504321 -10.918548 2.896984 3.809593 -6.041227 -1.114423 -26.909795 -0.411922 0.446972 16.142817 1.721139 7.296627 36.892143 4.535900 0.000001 -65.070100 11.382083 -1.825824 -0.181199 5.524968 -15.575984 -25.197053 1.627216 -1.015886 14.118058 -0.354714 2.727392 34.866457 1.828100 -0.000000 -80.075600
7.683548 19.582755 0.648385 37.178815 -84.983765 -9.972776 -10.881888 2.898295 4.083244 -5.649975 -2.164369 -26.707273 -0.341183 0.384606 15.207425 1.766528 8.065894 37.027377 5.100400 -0.000000 -63.028000 11.358099 -1.840970 -0.034990 5.633534 -15.263270 -25.404726 1.711441 -0.951361 13.194246 -0.300923 2.726605 34.668964 1.789501 0.000000 -78.895900
7.563793 19.810472 0.640240 37.896770 -85.191410 -10.554860 -10.824983 2.885191 4.330809 -5.363070 -3.190492 -26.806214 -0.286261 0.339491 14.718686 1.791336 8.922984 36.363651 5.663500 0.000000 -61.462800 11.322229 -1.833523 0.118087 5.761102 -14.867257 -25.838690 1.809396 -0.895456 12.554820 -0.224601 2.511912 33.572968 1.559300 -0.000000 -78.349300
7.450593 20.024410 0.632012 38.724327 -85.360645 -11.205807 -10.755190 2.857000 4.532585 -5.194527 -4.088330 -27.158979 -0.254044 0.308784 14.612363 1.797737 9.727646 35.098450 6.122000 -0.000000 -60.437799 11.275897 -1.803358 0.263945 5.902804 -14.454025 -26.430179 1.925162 -0.841172 12.123105 -0.131716 2.199037 31.776448 1.234000 -0.000001 -78.107500
7.344191 20.224699 0.623702 39.640317 -85.486640 -11.933503 -10.678394 2.814894 4.673100 -5.163892 -4.778179 -27.713300 -0.250990 0.290834 14.809412 1.786092 10.359963 33.431608 6.399600 0.000001 -59.781400 11.221692 -1.748860 0.390844 6.052646 -14.085955 -27.126209 2.060398 -0.782585 11.825191 -0.030857 1.891632 29.509314 0.901900 0.000000 -78.075700
7.244562 20.412330 0.615545 40.570450 -85.569419 -12.683714 -10.601179 2.760509 4.744209 -5.277808 -5.211888 -28.421105 -0.279841 0.284752 15.219577 1.756747 10.745964 31.571849 6.469000 -0.000000 -59.329200 11.160607 -1.671412 0.490317 6.216526 -13.809694 -27.889532 2.215101 -0.716679 11.598327 0.070675 1.666368 27.002387 0.624500 -0.000000 -78.000699
7.151491 20.587523 0.607777 41.396972 -85.612203 -13.349226 -10.530273 2.695665 4.742451 -5.529765 -5.369755 -29.235927 -0.339273 0.290314 15.750649 1.710816 10.863417 29.724245 6.351100 0.000000 -59.269800 11.092947 -1.575033 0.555766 6.407952 -13.653325 -28.687069 2.386008 -0.642184 11.374809 0.164559 1.535847 24.490808 0.416100 0.000001 -78.137600
7.064580 20.751481 0.600764 41.990801 -85.622157 -13.803009 -10.471105 2.622665 4.671223 -5.904405 -5.254912 -30.130983 -0.426443 0.307657 16.325478 1.647787 10.716034 28.038544 6.083900 -0.000000 -59.539400 11.018064 -1.466381 0.587198 6.644108 -13.619996 -29.506301 2.569240 -0.560520 11.111169 0.247200 1.492408 22.150360 0.272900 0.000000 -78.476900
6.982756 20.904636 0.594600 42.319655 -85.607194 -14.000206 -10.425317 2.544799 4.541203 -6.384701 -4.900867 -31.088279 -0.538081 0.335404 16.875764 1.567570 10.337114 26.596827 5.714901 0.000000 -59.780499 10.936490 -1.351797 0.590691 6.932857 -13.692047 -30.353272 2.760782 -0.474811 10.795139 0.319461 1.525181 20.074136 0.185300 -0.000001 -78.674100
6.905215 21.047473 0.589446 42.351938 -85.575366 -13.897503 -10.392782 2.463322 4.365269 -6.946655 -4.359507 -32.090026 -0.668773 0.370620 17.337409 1.474244 9.791594 25.456770 5.300000 0.000000 -60.013000 10.848233 -1.236664 0.574575 7.277057 -13.833234 -31.227936 2.955364 -0.386263 10.407447 0.380284 1.591027 18.321416 0.128401 0.000000 -78.774700
6.831271 21.180354 0.585375 42.082240 -85.532835 -13.478906 -10.371699 2.378389 4.156272 -7.566442 -3.689505 -33.117314 -0.812796 0.409243 17.655739 1.374391 9.157360 24.646430 4.889200 -0.000000 -60.542000 10.753917 -1.124568 0.547607 7.672545 -14.002087 -32.124341 3.147186 -0.293977 9.921422 0.426970 1.633697 16.928646 0.075300 -0.000000 -79.280600
